<mxfile host="app.diagrams.net" agent="Mozilla/5.0 (Macintosh; Intel Mac OS X 10.15; rv:133.0) Gecko/20100101 Firefox/133.0" version="25.0.3">
  <diagram name="Page-1" id="WiSCMT4qDFFyEE6UJglB">
    <mxGraphModel dx="954" dy="590" grid="1" gridSize="10" guides="1" tooltips="1" connect="1" arrows="1" fold="1" page="1" pageScale="1" pageWidth="850" pageHeight="1100" math="0" shadow="0">
      <root>
        <mxCell id="0" />
        <mxCell id="1" parent="0" />
        <mxCell id="rHEaU949lvLi-Id1TWpv-1" style="edgeStyle=orthogonalEdgeStyle;rounded=0;orthogonalLoop=1;jettySize=auto;html=1;exitX=0.5;exitY=1;exitDx=0;exitDy=0;endArrow=ERmany;endFill=0;" edge="1" parent="1" source="rHEaU949lvLi-Id1TWpv-3" target="rHEaU949lvLi-Id1TWpv-6">
          <mxGeometry relative="1" as="geometry" />
        </mxCell>
        <mxCell id="rHEaU949lvLi-Id1TWpv-2" style="edgeStyle=orthogonalEdgeStyle;rounded=0;orthogonalLoop=1;jettySize=auto;html=1;exitX=1;exitY=0.5;exitDx=0;exitDy=0;entryX=0;entryY=0.5;entryDx=0;entryDy=0;endArrow=ERmany;endFill=0;startArrow=ERmany;startFill=0;" edge="1" parent="1" source="rHEaU949lvLi-Id1TWpv-3" target="rHEaU949lvLi-Id1TWpv-11">
          <mxGeometry relative="1" as="geometry" />
        </mxCell>
        <mxCell id="rHEaU949lvLi-Id1TWpv-3" value="User" style="rounded=0;whiteSpace=wrap;html=1;fillColor=#fff2cc;strokeColor=#d6b656;" vertex="1" parent="1">
          <mxGeometry x="160" y="160" width="120" height="60" as="geometry" />
        </mxCell>
        <mxCell id="rHEaU949lvLi-Id1TWpv-4" style="edgeStyle=orthogonalEdgeStyle;rounded=0;orthogonalLoop=1;jettySize=auto;html=1;exitX=1;exitY=0.5;exitDx=0;exitDy=0;entryX=0;entryY=0.5;entryDx=0;entryDy=0;endArrow=ERmany;endFill=0;startArrow=ERmany;startFill=0;" edge="1" parent="1" source="rHEaU949lvLi-Id1TWpv-6" target="rHEaU949lvLi-Id1TWpv-7">
          <mxGeometry relative="1" as="geometry" />
        </mxCell>
        <mxCell id="rHEaU949lvLi-Id1TWpv-5" style="edgeStyle=orthogonalEdgeStyle;rounded=0;orthogonalLoop=1;jettySize=auto;html=1;exitX=1;exitY=0.25;exitDx=0;exitDy=0;entryX=0;entryY=0.75;entryDx=0;entryDy=0;endArrow=ERmany;endFill=0;" edge="1" parent="1" source="rHEaU949lvLi-Id1TWpv-6" target="rHEaU949lvLi-Id1TWpv-11">
          <mxGeometry relative="1" as="geometry" />
        </mxCell>
        <mxCell id="rHEaU949lvLi-Id1TWpv-12" value="app roles" style="edgeLabel;html=1;align=center;verticalAlign=middle;resizable=0;points=[];" vertex="1" connectable="0" parent="rHEaU949lvLi-Id1TWpv-5">
          <mxGeometry x="-0.0182" y="2" relative="1" as="geometry">
            <mxPoint as="offset" />
          </mxGeometry>
        </mxCell>
        <mxCell id="rHEaU949lvLi-Id1TWpv-6" value="App" style="rounded=0;whiteSpace=wrap;html=1;fillColor=#fff2cc;strokeColor=#d6b656;" vertex="1" parent="1">
          <mxGeometry x="160" y="280" width="120" height="60" as="geometry" />
        </mxCell>
        <mxCell id="rHEaU949lvLi-Id1TWpv-7" value="Resource" style="rounded=0;whiteSpace=wrap;html=1;fillColor=#dae8fc;strokeColor=#6c8ebf;" vertex="1" parent="1">
          <mxGeometry x="410" y="280" width="120" height="60" as="geometry" />
        </mxCell>
        <mxCell id="rHEaU949lvLi-Id1TWpv-8" style="edgeStyle=orthogonalEdgeStyle;rounded=0;orthogonalLoop=1;jettySize=auto;html=1;exitX=0.5;exitY=1;exitDx=0;exitDy=0;entryX=1;entryY=0.5;entryDx=0;entryDy=0;endArrow=none;endFill=0;startArrow=ERmany;startFill=0;" edge="1" parent="1" source="rHEaU949lvLi-Id1TWpv-9" target="rHEaU949lvLi-Id1TWpv-7">
          <mxGeometry relative="1" as="geometry" />
        </mxCell>
        <mxCell id="rHEaU949lvLi-Id1TWpv-9" value="Permission" style="rounded=0;whiteSpace=wrap;html=1;fillColor=#dae8fc;strokeColor=#6c8ebf;" vertex="1" parent="1">
          <mxGeometry x="600" y="220" width="120" height="60" as="geometry" />
        </mxCell>
        <mxCell id="rHEaU949lvLi-Id1TWpv-10" style="edgeStyle=orthogonalEdgeStyle;rounded=0;orthogonalLoop=1;jettySize=auto;html=1;exitX=1;exitY=0.5;exitDx=0;exitDy=0;entryX=0.5;entryY=0;entryDx=0;entryDy=0;endArrow=ERmany;endFill=0;startArrow=ERmany;startFill=0;" edge="1" parent="1" source="rHEaU949lvLi-Id1TWpv-11" target="rHEaU949lvLi-Id1TWpv-9">
          <mxGeometry relative="1" as="geometry" />
        </mxCell>
        <mxCell id="rHEaU949lvLi-Id1TWpv-11" value="Role" style="rounded=0;whiteSpace=wrap;html=1;fillColor=#fff2cc;strokeColor=#d6b656;" vertex="1" parent="1">
          <mxGeometry x="410" y="160" width="120" height="60" as="geometry" />
        </mxCell>
        <mxCell id="rHEaU949lvLi-Id1TWpv-13" value="&lt;div&gt;allocated &lt;br&gt;&lt;/div&gt;&lt;div&gt;resources&lt;/div&gt;" style="text;html=1;align=center;verticalAlign=middle;resizable=0;points=[];autosize=1;strokeColor=none;fillColor=none;" vertex="1" parent="1">
          <mxGeometry x="310" y="310" width="80" height="40" as="geometry" />
        </mxCell>
      </root>
    </mxGraphModel>
  </diagram>
</mxfile>
